<svg width="338" height="115" viewBox="0 0 338 115" fill="none" xmlns="http://www.w3.org/2000/svg">
<g clip-path="url(#clip0_527_135)">
<mask id="mask0_527_135" style="mask-type:luminance" maskUnits="userSpaceOnUse" x="0" y="0" width="338" height="115">
<path d="M338 0H0V115H338V0Z" fill="white"/>
</mask>
<g mask="url(#mask0_527_135)">
<path fill-rule="evenodd" clip-rule="evenodd" d="M-33.5 -32.5C102.167 -32.5 237.833 -32.5 373.5 -32.5C373.5 36.8333 373.5 106.167 373.5 175.5C237.833 175.5 102.167 175.5 -33.5 175.5C-33.5 106.167 -33.5 36.8333 -33.5 -32.5Z" fill="black"/>
<path fill-rule="evenodd" clip-rule="evenodd" d="M42.5 110.5C45.8333 111.167 49.1667 111.833 52.5 112.5C44.2018 113.574 35.8684 113.74 27.5 113C20.0471 110.205 18.5471 105.371 23 98.5C38.8068 73.883 53.3068 48.5497 66.5 22.5C56.4776 22.5111 46.4776 23.0111 36.5 24C19.751 27.4114 8.5843 37.2448 3 53.5C1.8438 54.9928 1.0104 54.8261 0.5 53C3.7982 42.728 9.1316 33.728 16.5 26C18.6705 24.4138 21.0038 23.0804 23.5 22C47.4504 20.7062 71.45 20.0395 95.5 20C104.405 18.8163 111.905 14.983 118 8.5C118.92 5.8987 119.587 3.2321 120 0.5C123.879 3.2544 125.212 6.9211 124 11.5C118.367 18.0493 111.201 21.5493 102.5 22C94.833 22.3333 87.167 22.6667 79.5 23C63.3649 46.0893 48.8649 70.256 36 95.5C33.8823 100.008 34.049 104.341 36.5 108.5C38.323 109.747 40.323 110.414 42.5 110.5Z" fill="#F1F1F1"/>
<path fill-rule="evenodd" clip-rule="evenodd" d="M334.5 28.5C337.173 28.6845 337.84 29.8511 336.5 32C328.833 37.6667 321.167 43.3333 313.5 49C309.973 51.5908 306.306 53.5908 302.5 55C313.356 46.3023 324.023 37.469 334.5 28.5Z" fill="#E2E2E2"/>
<path fill-rule="evenodd" clip-rule="evenodd" d="M142.5 36.5C144.5 36.5 146.5 36.5 148.5 36.5C148.493 41.6771 145.993 45.0104 141 46.5C139.268 46.2664 138.434 45.2664 138.5 43.5C139.071 40.6873 140.404 38.354 142.5 36.5Z" fill="#EBEBEB"/>
<path fill-rule="evenodd" clip-rule="evenodd" d="M235.5 35.5C239.225 35.7796 240.392 37.7796 239 41.5C233.592 48.803 230.925 48.1363 231 39.5C232.397 37.9297 233.897 36.5964 235.5 35.5Z" fill="#EBEBEB"/>
<path fill-rule="evenodd" clip-rule="evenodd" d="M87.5 79.5C85.067 80.548 85.067 81.214 87.5 81.5C80.768 90.747 74.601 100.414 69 110.5C66.4864 113.177 64.6531 112.677 63.5 109C71.2 95.102 79.033 81.268 87 67.5001C89.537 66.493 91.037 67.493 91.5 70.5C90.415 73.665 89.082 76.665 87.5 79.5Z" fill="#F2F2F2"/>
<path fill-rule="evenodd" clip-rule="evenodd" d="M92.5 77.5C92.167 77.5 91.833 77.5 91.5 77.5C96.59 72.198 102.757 68.531 110 66.4999C112.288 66.3894 113.788 67.3894 114.5 69.5C113.436 71.959 112.102 74.292 110.5 76.5C104.276 72.36 98.276 72.693 92.5 77.5Z" fill="#E8E8E8"/>
<path fill-rule="evenodd" clip-rule="evenodd" d="M283.5 35.4998C284.552 35.3503 285.552 35.517 286.5 35.9998C283.438 37.0606 280.938 38.8939 279 41.4998C273.124 50.0812 267.624 58.9145 262.5 67.9998C271.329 68.029 279.996 68.696 288.5 70C278.937 70.757 269.437 71.59 260 72.5C256.139 78.888 252.806 85.554 250 92.5C245.636 108.908 251.136 113.408 266.5 106C268.454 104.16 270.454 103.327 272.5 103.5C263.787 110.68 253.787 113.513 242.5 112C241.667 111.167 240.833 110.333 240 109.5C239.32 104.009 239.653 98.675 241 93.5C232.757 103.602 222.257 109.602 209.5 111.5C206.139 111.888 203.306 110.888 201 108.5C200.518 105.093 200.518 101.76 201 98.5C194.653 104.508 187.486 109.341 179.5 113C175.221 114.244 170.888 114.577 166.5 114C164.522 111.503 164.022 108.669 165 105.5C169.809 95.214 175.143 85.214 181 75.5C181.667 74.167 181.667 72.833 181 71.5C172.959 77.695 165.293 84.361 158 91.5C153.917 98.668 149.584 105.668 145 112.5C142.929 110.545 142.262 108.212 143 105.5C145.28 101.553 147.947 97.887 151 94.5C151.667 93.833 151.667 93.167 151 92.5C143.618 100.772 134.784 106.939 124.5 111C120.5 111.667 116.5 111.667 112.5 111C110.274 109.38 108.94 107.214 108.5 104.5C112.969 91.391 119.636 79.557 128.5 69C130.025 67.9912 131.692 67.4912 133.5 67.4998C129.048 76.405 124.548 85.405 120 94.5C114.076 106.203 117.243 110.37 129.5 107C146.52 98.316 158.186 84.983 164.5 66.9998C166.826 66.8149 168.16 67.9816 168.5 70.5C165.231 75.563 162.731 80.896 161 86.5C169.398 78.397 178.565 71.397 188.5 65.4998C191.082 65.7464 191.915 67.0798 191 69.5C183.802 79.056 177.802 89.39 173 100.5C168.833 111 172 114.167 182.5 110C198.188 100.975 209.688 88.142 217 71.5C219.439 68.841 222.272 67.8407 225.5 68.5C218.343 79.646 212.677 91.479 208.5 104C208.439 105.711 209.106 107.044 210.5 108C213.167 108.667 215.833 108.667 218.5 108C234.141 100.359 245.808 88.692 253.5 73C249.833 72.667 246.167 72.333 242.5 72C243.167 71.333 243.833 70.667 244.5 70C248.167 69.667 251.833 69.333 255.5 69C260.957 59.2491 266.79 49.7491 273 40.4998C276.628 38.912 280.128 37.2454 283.5 35.4998Z" fill="#EDEDED"/>
<path fill-rule="evenodd" clip-rule="evenodd" d="M306.499 66.4999C310.006 65.9934 313.173 66.6601 315.999 68.5C316.117 72.616 314.783 76.283 311.999 79.5C305.869 84.823 298.702 87.489 290.499 87.5C286.994 94.212 286.66 101.046 289.499 108C294.897 109.853 300.231 109.52 305.499 107C315.057 102.219 323.057 95.552 329.499 87C330.166 86.333 330.832 86.333 331.499 87C322.795 98.371 311.795 106.705 298.499 112C281.266 116.436 275.433 110.269 280.999 93.5C286.359 81.375 294.859 72.375 306.499 66.4999Z" fill="#EAEAEA"/>
<path fill-rule="evenodd" clip-rule="evenodd" d="M305.5 68.5C308.488 68.155 309.821 69.488 309.5 72.5C307.169 81.999 301.169 85.999 291.5 84.5C294.81 77.81 299.477 72.477 305.5 68.5Z" fill="#0D0D0D"/>
<path fill-rule="evenodd" clip-rule="evenodd" d="M91.5005 77.5C91.8335 77.5 92.1675 77.5 92.5005 77.5C91.4215 79.543 89.7545 80.876 87.5005 81.5C85.0675 81.214 85.0675 80.548 87.5005 79.5C89.0625 79.267 90.3955 78.6 91.5005 77.5Z" fill="#878787"/>
<path fill-rule="evenodd" clip-rule="evenodd" d="M42.5 110.5C46.226 110.177 49.8927 110.511 53.5 111.5C53.3764 112.107 53.0431 112.44 52.5 112.5C49.1667 111.833 45.8333 111.167 42.5 110.5Z" fill="#7A7A7A"/>
</g>
</g>
<defs>
<clipPath id="clip0_527_135">
<rect width="338" height="115" fill="white"/>
</clipPath>
</defs>
</svg>
