<svg width="407" height="208" viewBox="0 0 407 208" fill="none" xmlns="http://www.w3.org/2000/svg">
<g clip-path="url(#clip0_373_126)">
<path fill-rule="evenodd" clip-rule="evenodd" d="M-0.5 -0.5C135.167 -0.5 270.833 -0.5 406.5 -0.5C406.5 68.8333 406.5 138.167 406.5 207.5C270.833 207.5 135.167 207.5 -0.5 207.5C-0.5 138.167 -0.5 68.8333 -0.5 -0.5Z" fill="#FDFDFD"/>
<path fill-rule="evenodd" clip-rule="evenodd" d="M96.5 56.5C97.404 55.791 97.7373 54.791 97.5 53.5C88.6506 53.1736 79.9839 53.507 71.5 54.5C58.4848 54.9242 47.9848 60.2575 40 70.5C36.5667 75.5974 33.5667 80.9307 31 86.5C33.2379 73.2037 39.7379 62.3704 50.5 54C53.4715 53.2057 56.4715 52.539 59.5 52C81.1667 51.6667 102.833 51.3333 124.5 51C134.278 50.5269 142.445 46.6935 149 39.5C149.939 36.8791 150.772 34.2125 151.5 31.5C157.264 37.6635 156.597 43.1635 149.5 48C146.583 49.5275 143.583 50.8608 140.5 52C130.549 53.1984 120.549 53.8651 110.5 54C93.6796 78.1574 78.513 103.324 65 129.5C64.3333 132.833 64.3333 136.167 65 139.5C65.8333 140.333 66.6667 141.167 67.5 142C72.4164 143.161 77.4164 143.827 82.5 144C72.8554 145.939 63.1887 145.939 53.5 144C50.6508 141.441 49.8175 138.274 51 134.5C66.4936 108.55 81.6603 82.5501 96.5 56.5Z" fill="#111111"/>
<path fill-rule="evenodd" clip-rule="evenodd" d="M71.5 54.5C79.9839 53.507 88.6506 53.1736 97.5 53.5C97.7373 54.791 97.404 55.791 96.5 56.5C88.5671 54.5316 80.2337 53.865 71.5 54.5Z" fill="#818181"/>
<path fill-rule="evenodd" clip-rule="evenodd" d="M369.499 59.5C370.585 59.62 371.252 60.2867 371.499 61.5C360.524 70.7512 349.024 79.4179 336.999 87.5C336.311 86.6683 336.478 86.0016 337.499 85.5C348.499 77.1586 359.166 68.4919 369.499 59.5Z" fill="#202020"/>
<path fill-rule="evenodd" clip-rule="evenodd" d="M174.5 67.5C176.167 67.5 177.833 67.5 179.5 67.5C180.077 74.0858 177.244 77.0858 171 76.5C170.833 75.6667 170.667 74.8333 170.5 74C171.205 71.4582 172.539 69.2916 174.5 67.5Z" fill="#0D0D0D"/>
<path fill-rule="evenodd" clip-rule="evenodd" d="M267.5 67.5C269.167 67.5 270.833 67.5 272.5 67.5C273.032 73.9694 270.032 77.3027 263.5 77.5C262.749 73.1804 264.083 69.8471 267.5 67.5Z" fill="#131313"/>
<path fill-rule="evenodd" clip-rule="evenodd" d="M296.499 99.5C295.956 99.56 295.623 99.8933 295.499 100.5C304.323 101.167 312.99 101.833 321.499 102.5C312.108 102.147 302.774 102.647 293.499 104C289.599 110.967 286.099 118.134 282.999 125.5C281.636 129.761 281.303 134.095 281.999 138.5C284.908 141.394 288.408 142.227 292.499 141C297.053 139.724 301.386 137.891 305.499 135.5C306.695 135.846 306.695 136.346 305.499 137C299.298 140.844 292.632 143.511 285.499 145C280.617 146.213 276.451 145.046 272.999 141.5C272.095 136.269 272.595 131.269 274.499 126.5C275.556 125.794 275.223 125.461 273.499 125.5C278.287 118.995 282.62 112.162 286.499 105C282.832 104.667 279.166 104.333 275.499 104C276.166 103.333 276.832 102.667 277.499 102C281.54 101.827 285.54 101.327 289.499 100.5C294.704 90.4597 300.538 80.7931 306.999 71.5C310.984 69.5564 315.151 67.8897 319.499 66.5C320.695 66.8457 320.695 67.3457 319.499 68C316.437 69.0608 313.937 70.8941 311.999 73.5C306.558 82.0567 301.391 90.7234 296.499 99.5Z" fill="#121212"/>
<path fill-rule="evenodd" clip-rule="evenodd" d="M213.5 143.5C213.5 143.833 213.5 144.167 213.5 144.5C208.068 147.553 202.568 147.887 197 145.5C196.333 142.833 196.333 140.167 197 137.5C202.498 127.171 207.998 116.838 213.5 106.5C214.097 106.265 214.43 105.765 214.5 105C213.944 103.989 213.278 103.156 212.5 102.5C214.886 99.9599 217.719 97.9599 221 96.5C222.732 96.7336 223.566 97.7336 223.5 99.5C218.097 107.964 212.93 116.63 208 125.5C206.667 128.833 205.333 132.167 204 135.5C202.224 143.873 205.391 146.539 213.5 143.5Z" fill="#141414"/>
<path fill-rule="evenodd" clip-rule="evenodd" d="M117.5 111.5C116.243 112.623 116.576 113.289 118.5 113.5C110.766 122.619 104.266 132.619 99 143.5C97.6667 144.833 96.3333 144.833 95 143.5C94.3333 141.833 94.3333 140.167 95 138.5C102.587 125.662 109.92 112.662 117 99.5C119.782 97.9889 121.615 98.8223 122.5 102C121.21 105.415 119.544 108.582 117.5 111.5Z" fill="#121212"/>
<path fill-rule="evenodd" clip-rule="evenodd" d="M129.5 105.5C128.833 105.5 128.5 105.167 128.5 104.5C132.898 100.2 138.231 98.3664 144.5 98.9999C145.554 100.388 145.72 101.888 145 103.5C143.383 104.851 142.216 106.518 141.5 108.5C137.96 105.885 133.96 104.885 129.5 105.5Z" fill="#191919"/>
<path fill-rule="evenodd" clip-rule="evenodd" d="M197.5 114.5C197.833 114.5 198.167 114.5 198.5 114.5C190.159 123.337 183.159 133.17 177.5 144C176.256 144.456 175.423 143.956 175 142.5C174.333 140.5 174.333 138.5 175 136.5C178.467 132.88 181.3 128.88 183.5 124.5C184.833 123.833 184.833 123.167 183.5 122.5C185.168 120.66 186.668 118.66 188 116.5C190.449 110.437 193.282 104.603 196.5 98.9998C198.603 98.7484 199.937 99.7484 200.5 102C197.833 107 195.167 112 192.5 117C192.667 117.5 192.833 118 193 118.5C194.371 116.959 195.871 115.625 197.5 114.5Z" fill="#131313"/>
<path fill-rule="evenodd" clip-rule="evenodd" d="M152.501 141.5C153.168 142.167 153.834 142.833 154.501 143.5C144.637 147.007 140.137 143.673 141.001 133.5C144.69 123.122 149.69 113.455 156.001 104.5C158.615 101.26 161.782 99.9265 165.501 100.5C159.328 109.539 154.162 119.205 150.001 129.5C148.877 132.442 148.543 135.442 149.001 138.5C149.423 140.426 150.59 141.426 152.501 141.5Z" fill="#111111"/>
<path fill-rule="evenodd" clip-rule="evenodd" d="M244.499 141.5C245.499 142.167 246.499 142.833 247.499 143.5C244.22 144.492 240.887 144.659 237.499 144C235.675 143.34 234.342 142.173 233.499 140.5C233.263 137.391 233.596 134.391 234.499 131.5C235.45 130.081 235.783 128.415 235.499 126.5C240.322 118.861 245.155 111.195 249.999 103.5C252.184 101.46 254.684 100.126 257.499 99.5C252.077 110.012 246.91 120.678 241.999 131.5C241.332 134.167 241.332 136.833 241.999 139.5C242.707 140.381 243.541 141.047 244.499 141.5Z" fill="#0F0F0F"/>
<path fill-rule="evenodd" clip-rule="evenodd" d="M296.5 99.5C305.009 100.167 313.676 100.833 322.5 101.5C322.376 102.107 322.043 102.44 321.5 102.5C312.991 101.833 304.324 101.167 295.5 100.5C295.624 99.8933 295.957 99.56 296.5 99.5Z" fill="#8E8E8E"/>
<path fill-rule="evenodd" clip-rule="evenodd" d="M212.5 102.5C213.278 103.156 213.944 103.989 214.5 105C214.43 105.765 214.097 106.265 213.5 106.5C213.631 105.624 213.298 104.957 212.5 104.5C207.775 107.852 203.108 111.186 198.5 114.5C198.167 114.5 197.833 114.5 197.5 114.5C201.913 109.79 206.913 105.79 212.5 102.5Z" fill="#595959"/>
<path fill-rule="evenodd" clip-rule="evenodd" d="M325.5 141.5C328.5 142.167 331.5 142.833 334.5 143.5C315.791 150.286 309.291 144.286 315 125.5C320.396 114.104 328.563 105.271 339.5 99.0001C342.894 98.2484 346.227 98.415 349.5 99.5001C350.327 104.721 348.66 109.221 344.5 113C338.61 117.573 331.943 119.407 324.5 118.5C321.714 124.83 320.881 131.497 322 138.5C322.72 140.056 323.887 141.056 325.5 141.5Z" fill="#151515"/>
<path fill-rule="evenodd" clip-rule="evenodd" d="M339.5 100.5C340.833 100.5 342.167 100.5 343.5 100.5C343.383 112.623 337.383 117.956 325.5 116.5C328.47 109.539 333.137 104.206 339.5 100.5Z" fill="#F3F3F3"/>
<path fill-rule="evenodd" clip-rule="evenodd" d="M128.499 104.5C128.499 105.167 128.832 105.5 129.499 105.5C125.856 108.135 122.189 110.801 118.499 113.5C116.575 113.289 116.242 112.623 117.499 111.5C117.434 111.938 117.6 112.272 117.999 112.5C121.375 109.617 124.875 106.951 128.499 104.5Z" fill="#4F4F4F"/>
<path fill-rule="evenodd" clip-rule="evenodd" d="M234.5 131.5C233.597 134.391 233.264 137.391 233.5 140.5C233.083 137.841 232.083 135.508 230.5 133.5C231.458 132.038 232.624 130.705 234 129.5C234.464 130.094 234.631 130.761 234.5 131.5Z" fill="#B7B7B7"/>
<path fill-rule="evenodd" clip-rule="evenodd" d="M334.5 143.5C331.5 142.833 328.5 142.167 325.5 141.5C331.533 142.035 337.199 140.868 342.5 138C351.295 133.015 358.795 126.515 365 118.5C363.083 122.758 360.25 126.592 356.5 130C349.941 135.779 342.608 140.279 334.5 143.5Z" fill="#404040"/>
<path fill-rule="evenodd" clip-rule="evenodd" d="M273.5 125.5C275.224 125.461 275.557 125.794 274.5 126.5C269.329 130.834 263.995 135 258.5 139C255.039 141.066 251.373 142.566 247.5 143.5C246.5 142.833 245.5 142.167 244.5 141.5C247.522 141.196 250.522 140.696 253.5 140C260.727 135.892 267.394 131.058 273.5 125.5Z" fill="#3C3C3C"/>
<path fill-rule="evenodd" clip-rule="evenodd" d="M235.5 126.5C235.784 128.415 235.451 130.081 234.5 131.5C234.631 130.761 234.464 130.094 234 129.5C232.624 130.705 231.458 132.038 230.5 133.5C225.623 138.375 219.957 142.041 213.5 144.5C213.5 144.167 213.5 143.833 213.5 143.5C221.517 138.813 228.85 133.146 235.5 126.5Z" fill="#3C3C3C"/>
<path fill-rule="evenodd" clip-rule="evenodd" d="M183.5 122.5C184.833 123.167 184.833 123.833 183.5 124.5C175.298 133.099 165.632 139.432 154.5 143.5C153.833 142.833 153.167 142.167 152.5 141.5C156.059 141.592 159.392 140.759 162.5 139C169.949 134.048 176.949 128.548 183.5 122.5Z" fill="#393939"/>
</g>
<defs>
<clipPath id="clip0_373_126">
<rect width="407" height="208" fill="white"/>
</clipPath>
</defs>
</svg>
